<svg xmlns="http://www.w3.org/2000/svg" width="55" height="55" viewBox="0 0 55 55"><g><g><g><path fill="#ff7931" d="M55 27.5C55 42.688 42.688 55 27.5 55S0 42.688 0 27.5 12.312 0 27.5 0 55 12.312 55 27.5z"/></g><g><g/><g><path fill="#fff" d="M34.795 23.442c-2.076 0-3.765-1.67-3.765-3.721 0-2.052 1.69-3.721 3.765-3.721 2.076 0 3.765 1.67 3.765 3.721 0 2.052-1.689 3.721-3.765 3.721zm0-5.068c-.773 0-1.402.604-1.402 1.347s.63 1.347 1.402 1.347c.773 0 1.402-.604 1.402-1.347s-.629-1.347-1.402-1.347z"/></g><g><path fill="#fff" d="M40.818 34.003H16.182c-.443 0-.848-.248-1.05-.643-.203-.395-.17-.87.087-1.232l8.352-11.799a1.18 1.18 0 0 1 1.916-.015l5.875 8.038 3.412-3.326a1.178 1.178 0 0 1 1.766.136l5.189 6.897c.17.205.271.47.271.757 0 .655-.53 1.187-1.182 1.187zm-22.346-2.374h19.97l-2.981-3.964-3.426 3.339a1.178 1.178 0 0 1-1.775-.15l-5.71-7.81z"/></g></g></g></g></svg>